<svg class="diagram-root" style="background: #f5f6f6" xmlns="http://www.w3.org/2000/svg" xmlns:xlink="http://www.w3.org/1999/xlink"><style>.diagram-root { font-family: "Helvetica Neue", sans-serif; font-size: 12px; } .t { overflow: visible; } .t-bg { y: 40; fill: #fff;   } .th { fill: #005aa0;   } .tht { fill: #fff; font-size: 14px;  } .tf { fill: #323c46; overflow: visible; } .tf.pk { fill: #005aa0; font-weight: bold; } .tf.fk { font-weight: bold; } .ty { fill: #adb1b5; font-weight: normal; text-anchor: end; } .r { fill: transparent; stroke: #c3c3c3; stroke-width: 1; } .l { stroke: 1; } .i { fill: #c2c7ce; stroke: #c2c7ce; } .i.ix { fill: #afb3b6; stroke: #000; } .fa { fill: transparent; overflow: visible; } .fa .bg.hover { fill: #f7f7f7; } .c { cy: 12; r: 4; stroke: #d2d2dc; fill: #d2d2dc; } .hr { fill: transparent; stroke: #323c46; stroke-opacity: 0.035; stroke-width: 13; } .dc { stroke: #fa5a3c; fill: #fa5a3c; } .x { stroke: white; stroke-width: 1; } .hl .th { fill: #1b9bff; } .hl .tht {  } .fhl .bg { fill: #e7f4ff; } .fhls .bg {  } .r.hl { stroke: #1b9bff; } .dim { opacity: 0.25; }</style><g class="drawing-wrapper" transform="translate(-1.888888888888772, -25.435555555555517) scale(1,1)"><g class="rs"><path d="M 23.89 258.11 m -1, 0 a 1,1 0 1,0 2,0 a 1,1 0 1,0 -2,0 M 23.89 258.11 m -0.5, 0 a 0.5,0.5 0 1,0 1,0 a 0.5,0.5 0 1,0 -1,0  M23.89 258.11 L23.89 258.11 11.89 258.11 M 23.89 264.11 m -1, 0 a 1,1 0 1,0 2,0 a 1,1 0 1,0 -2,0 M 23.89 264.11 m -0.5, 0 a 0.5,0.5 0 1,0 1,0 a 0.5,0.5 0 1,0 -1,0  M23.89 264.11 L23.89 264.11 16.89 258.11 23.89 252.11 M 23.89 252.11 m -1, 0 a 1,1 0 1,0 2,0 a 1,1 0 1,0 -2,0 M 23.89 252.11 m -0.5, 0 a 0.5,0.5 0 1,0 1,0 a 0.5,0.5 0 1,0 -1,0  M11.89 258.11 C -27.46806750563062 258.11, -32.46606750563062 375.89, 20.22 375.89 M 32.22 375.89 m -1, 0 a 1,1 0 1,0 2,0 a 1,1 0 1,0 -2,0 M 32.22 375.89 m -0.5, 0 a 0.5,0.5 0 1,0 1,0 a 0.5,0.5 0 1,0 -1,0  M32.22 375.89 L32.22 375.89 20.22 375.89 M26.22 381.89 L26.22 381.89 26.22 369.89" id="h1546913693" class="r"></path><path d="M 183.26 283.11 m -1, 0 a 1,1 0 1,0 2,0 a 1,1 0 1,0 -2,0 M 183.26 283.11 m -0.5, 0 a 0.5,0.5 0 1,0 1,0 a 0.5,0.5 0 1,0 -1,0  M183.26 283.11 L183.26 283.11 195.26 283.11 M 183.26 289.11 m -1, 0 a 1,1 0 1,0 2,0 a 1,1 0 1,0 -2,0 M 183.26 289.11 m -0.5, 0 a 0.5,0.5 0 1,0 1,0 a 0.5,0.5 0 1,0 -1,0  M183.26 289.11 L183.26 289.11 190.26 283.11 183.26 277.11 M 183.26 277.11 m -1, 0 a 1,1 0 1,0 2,0 a 1,1 0 1,0 -2,0 M 183.26 277.11 m -0.5, 0 a 0.5,0.5 0 1,0 1,0 a 0.5,0.5 0 1,0 -1,0  M195.26 283.11 C 486.68399999999997 283.11, 396.15 377, 346.15 377 M 334.15 377 m -1, 0 a 1,1 0 1,0 2,0 a 1,1 0 1,0 -2,0 M 334.15 377 m -0.5, 0 a 0.5,0.5 0 1,0 1,0 a 0.5,0.5 0 1,0 -1,0  M334.15 377 L334.15 377 346.15 377 M340.15 383 L340.15 383 340.15 371" id="h4172521790" class="r"></path><path d="M 334.15 427 m -1, 0 a 1,1 0 1,0 2,0 a 1,1 0 1,0 -2,0 M 334.15 427 m -0.5, 0 a 0.5,0.5 0 1,0 1,0 a 0.5,0.5 0 1,0 -1,0  M334.15 427 L334.15 427 346.15 427 M 334.15 433 m -1, 0 a 1,1 0 1,0 2,0 a 1,1 0 1,0 -2,0 M 334.15 433 m -0.5, 0 a 0.5,0.5 0 1,0 1,0 a 0.5,0.5 0 1,0 -1,0  M334.15 433 L334.15 433 341.15 427 334.15 421 M 334.15 421 m -1, 0 a 1,1 0 1,0 2,0 a 1,1 0 1,0 -2,0 M 334.15 421 m -0.5, 0 a 0.5,0.5 0 1,0 1,0 a 0.5,0.5 0 1,0 -1,0  M346.15 427 C 605.3820000000001 427, 526.9200000000001 112.44, 476.92 112.44 M 464.92 112.44 m -1, 0 a 1,1 0 1,0 2,0 a 1,1 0 1,0 -2,0 M 464.92 112.44 m -0.5, 0 a 0.5,0.5 0 1,0 1,0 a 0.5,0.5 0 1,0 -1,0  M464.92 112.44 L464.92 112.44 476.92 112.44 M470.92 118.44 L470.92 118.44 470.92 106.44" id="h3365778033" class="r"></path><path d="M 334.15 452 m -1, 0 a 1,1 0 1,0 2,0 a 1,1 0 1,0 -2,0 M 334.15 452 m -0.5, 0 a 0.5,0.5 0 1,0 1,0 a 0.5,0.5 0 1,0 -1,0  M334.15 452 L334.15 452 346.15 452 M 334.15 458 m -1, 0 a 1,1 0 1,0 2,0 a 1,1 0 1,0 -2,0 M 334.15 458 m -0.5, 0 a 0.5,0.5 0 1,0 1,0 a 0.5,0.5 0 1,0 -1,0  M334.15 458 L334.15 458 341.15 452 334.15 446 M 334.15 446 m -1, 0 a 1,1 0 1,0 2,0 a 1,1 0 1,0 -2,0 M 334.15 446 m -0.5, 0 a 0.5,0.5 0 1,0 1,0 a 0.5,0.5 0 1,0 -1,0  M346.15 452 Q 403.37 452, 460.58 412.95 T 575 373.89 M 587 373.89 m -1, 0 a 1,1 0 1,0 2,0 a 1,1 0 1,0 -2,0 M 587 373.89 m -0.5, 0 a 0.5,0.5 0 1,0 1,0 a 0.5,0.5 0 1,0 -1,0  M587 373.89 L587 373.89 575 373.89 M581 379.89 L581 379.89 581 367.89" id="h1528940817" class="r"></path></g><g class="hrs"></g><g class="ts"><svg width="143.03" height="125" x="321.89" y="55.44" id="h16875077" class="t"><rect height="40" width="143.03" class="th"></rect><text x="13" y="25" class="tht">Doctors</text><rect height="85" width="143.03" class="t-bg"></rect><text x="13" y="61" class="tf pk">id<tspan x="130.03" class="ty">INTEGER</tspan></text><path d="M7,14A2,2 0 0,1 5,12A2,2 0 0,1 7,10A2,2 0 0,1 9,12A2,2 0 0,1 7,14M12.65,10C11.83,7.67 9.61,6 7, 6A6, 6 0 0, 0 1, 12A6, 6 0 0, 0 7, 18C9.61, 18 11.83, 16.33 12.65, 14H17V18H21V14H23V10H12.65Z" class="i pk" transform="translate(56.692109375, 48) scale(0.65)"></path><text x="13" y="86" class="tf">Name<tspan x="130.03" class="ty">TEXT</tspan></text><path d="M814.545 581.818v-23.273H535.273v-93.09h-46.546v93.09H209.455v139.637H256V605.09h232.727v93.09h46.546v-93.09H768v93.09h46.545V581.819zM674.91 465.455H349.091V139.636h325.818v325.819zM325.82 884.364H139.635V698.182h186.182v186.182z m279.272 0H418.909V698.182h186.182v186.182z m279.273 0H698.182V698.182h186.182v186.182zM395.636 418.909h232.728V186.182H395.636v232.727zM186.182 837.82h93.09v-93.092h-93.09v93.091z m279.273 0h93.09v-93.092h-93.09v93.091z m279.272 0h93.091v-93.092h-93.09v93.091z" class="i ix" transform="translate(84.36203125, 75) scale(0.014)"></path><text x="13" y="111" class="tf">Speciality<tspan x="130.03" class="ty">TEXT</tspan></text><path d="M814.545 581.818v-23.273H535.273v-93.09h-46.546v93.09H209.455v139.637H256V605.09h232.727v93.09h46.546v-93.09H768v93.09h46.545V581.819zM674.91 465.455H349.091V139.636h325.818v325.819zM325.82 884.364H139.635V698.182h186.182v186.182z m279.272 0H418.909V698.182h186.182v186.182z m279.273 0H698.182V698.182h186.182v186.182zM395.636 418.909h232.728V186.182H395.636v232.727zM186.182 837.82h93.09v-93.092h-93.09v93.091z m279.273 0h93.09v-93.092h-93.09v93.091z m279.272 0h93.091v-93.092h-93.09v93.091z" class="i ix" transform="translate(84.36203125, 100) scale(0.014)"></path></svg><svg width="176.72" height="150" x="587" y="316.89" id="h3676580549" class="t"><rect height="40" width="176.72" class="th"></rect><text x="13" y="25" class="tht">Patients</text><rect height="110" width="176.72" class="t-bg"></rect><text x="13" y="61" class="tf pk">id<tspan x="163.72" class="ty">INTEGER</tspan></text><path d="M7,14A2,2 0 0,1 5,12A2,2 0 0,1 7,10A2,2 0 0,1 9,12A2,2 0 0,1 7,14M12.65,10C11.83,7.67 9.61,6 7, 6A6, 6 0 0, 0 1, 12A6, 6 0 0, 0 7, 18C9.61, 18 11.83, 16.33 12.65, 14H17V18H21V14H23V10H12.65Z" class="i pk" transform="translate(90.382109375, 48) scale(0.65)"></path><text x="13" y="86" class="tf">PhoneNumber<tspan x="163.72" class="ty">INTEGER</tspan></text><text x="13" y="111" class="tf">email<tspan x="163.72" class="ty">TEXT</tspan></text><text x="13" y="136" class="tf">DOB<tspan x="163.72" class="ty">TEXT</tspan></text></svg><svg width="128.68" height="100" x="32.22" y="318.89" id="h1794948770" class="t"><rect height="40" width="128.68" class="th"></rect><text x="13" y="25" class="tht">Diseases</text><rect height="60" width="128.68" class="t-bg"></rect><text x="13" y="61" class="tf pk">id<tspan x="115.68" class="ty">INTEGER</tspan></text><path d="M7,14A2,2 0 0,1 5,12A2,2 0 0,1 7,10A2,2 0 0,1 9,12A2,2 0 0,1 7,14M12.65,10C11.83,7.67 9.61,6 7, 6A6, 6 0 0, 0 1, 12A6, 6 0 0, 0 7, 18C9.61, 18 11.83, 16.33 12.65, 14H17V18H21V14H23V10H12.65Z" class="i pk" transform="translate(42.34210937500001, 48) scale(0.65)"></path><text x="13" y="86" class="tf">name<tspan x="115.68" class="ty">TEXT</tspan></text><path d="M814.545 581.818v-23.273H535.273v-93.09h-46.546v93.09H209.455v139.637H256V605.09h232.727v93.09h46.546v-93.09H768v93.09h46.545V581.819zM674.91 465.455H349.091V139.636h325.818v325.819zM325.82 884.364H139.635V698.182h186.182v186.182z m279.272 0H418.909V698.182h186.182v186.182z m279.273 0H698.182V698.182h186.182v186.182zM395.636 418.909h232.728V186.182H395.636v232.727zM186.182 837.82h93.09v-93.092h-93.09v93.091z m279.273 0h93.09v-93.092h-93.09v93.091z m279.272 0h93.091v-93.092h-93.09v93.091z" class="i ix" transform="translate(70.01203125, 75) scale(0.014)"></path></svg><svg width="159.37" height="150" x="23.89" y="151.11" id="h3047656030" class="t"><rect height="40" width="159.37" class="th"></rect><text x="13" y="25" class="tht">Diagnoses</text><rect height="110" width="159.37" class="t-bg"></rect><text x="13" y="61" class="tf pk">id<tspan x="146.37" class="ty">INTEGER</tspan></text><path d="M7,14A2,2 0 0,1 5,12A2,2 0 0,1 7,10A2,2 0 0,1 9,12A2,2 0 0,1 7,14M12.65,10C11.83,7.67 9.61,6 7, 6A6, 6 0 0, 0 1, 12A6, 6 0 0, 0 7, 18C9.61, 18 11.83, 16.33 12.65, 14H17V18H21V14H23V10H12.65Z" class="i pk" transform="translate(73.032109375, 48) scale(0.65)"></path><text x="13" y="86" class="tf">name<tspan x="146.37" class="ty">TEXT</tspan></text><path d="M814.545 581.818v-23.273H535.273v-93.09h-46.546v93.09H209.455v139.637H256V605.09h232.727v93.09h46.546v-93.09H768v93.09h46.545V581.819zM674.91 465.455H349.091V139.636h325.818v325.819zM325.82 884.364H139.635V698.182h186.182v186.182z m279.272 0H418.909V698.182h186.182v186.182z m279.273 0H698.182V698.182h186.182v186.182zM395.636 418.909h232.728V186.182H395.636v232.727zM186.182 837.82h93.09v-93.092h-93.09v93.091z m279.273 0h93.09v-93.092h-93.09v93.091z m279.272 0h93.091v-93.092h-93.09v93.091z" class="i ix" transform="translate(100.70203125, 75) scale(0.014)"></path><text x="13" y="111" class="tf fk">diseases.id<tspan x="146.37" class="ty">INTEGER</tspan></text><text x="13" y="136" class="tf fk">visits.id<tspan x="146.37" class="ty">INTEGER</tspan></text></svg><svg width="148.04" height="150" x="186.11" y="320" id="h3280351983" class="t"><rect height="40" width="148.04" class="th"></rect><text x="13" y="25" class="tht">Visits</text><rect height="110" width="148.04" class="t-bg"></rect><text x="13" y="61" class="tf pk">id<tspan x="135.04" class="ty">INTEGER</tspan></text><path d="M7,14A2,2 0 0,1 5,12A2,2 0 0,1 7,10A2,2 0 0,1 9,12A2,2 0 0,1 7,14M12.65,10C11.83,7.67 9.61,6 7, 6A6, 6 0 0, 0 1, 12A6, 6 0 0, 0 7, 18C9.61, 18 11.83, 16.33 12.65, 14H17V18H21V14H23V10H12.65Z" class="i pk" transform="translate(61.70210937499999, 48) scale(0.65)"></path><text x="13" y="86" class="tf">date<tspan x="135.04" class="ty">DATE</tspan></text><path d="M814.545 581.818v-23.273H535.273v-93.09h-46.546v93.09H209.455v139.637H256V605.09h232.727v93.09h46.546v-93.09H768v93.09h46.545V581.819zM674.91 465.455H349.091V139.636h325.818v325.819zM325.82 884.364H139.635V698.182h186.182v186.182z m279.272 0H418.909V698.182h186.182v186.182z m279.273 0H698.182V698.182h186.182v186.182zM395.636 418.909h232.728V186.182H395.636v232.727zM186.182 837.82h93.09v-93.092h-93.09v93.091z m279.273 0h93.09v-93.092h-93.09v93.091z m279.272 0h93.091v-93.092h-93.09v93.091z" class="i ix" transform="translate(88.92085937499999, 75) scale(0.014)"></path><text x="13" y="111" class="tf fk">doctor.id<tspan x="135.04" class="ty">INTEGER</tspan></text><text x="13" y="136" class="tf fk">patient.id<tspan x="135.04" class="ty">INTEGER</tspan></text></svg></g></g><text class="qdbd-link" x="10" y="20">www.quickdatabasediagrams.com</text></svg>