<svg class="diagram-root" style="background: #f5f6f6" xmlns="http://www.w3.org/2000/svg" xmlns:xlink="http://www.w3.org/1999/xlink"><style>.diagram-root { font-family: "Helvetica Neue", sans-serif; font-size: 12px; } .t { overflow: visible; } .t-bg { y: 40; fill: #fff;   } .th { fill: #005aa0;   } .tht { fill: #fff; font-size: 14px;  } .tf { fill: #323c46; overflow: visible; } .tf.pk { fill: #005aa0; font-weight: bold; } .tf.fk { font-weight: bold; } .ty { fill: #adb1b5; font-weight: normal; text-anchor: end; } .r { fill: transparent; stroke: #c3c3c3; stroke-width: 1; } .l { stroke: 1; } .i { fill: #c2c7ce; stroke: #c2c7ce; } .i.ix { fill: #afb3b6; stroke: #000; } .fa { fill: transparent; overflow: visible; } .fa .bg.hover { fill: #f7f7f7; } .c { cy: 12; r: 4; stroke: #d2d2dc; fill: #d2d2dc; } .hr { fill: transparent; stroke: #323c46; stroke-opacity: 0.035; stroke-width: 13; } .dc { stroke: #fa5a3c; fill: #fa5a3c; } .x { stroke: white; stroke-width: 1; } .hl .th { fill: #1b9bff; } .hl .tht {  } .fhl .bg { fill: #e7f4ff; } .fhls .bg {  } .r.hl { stroke: #1b9bff; } .dim { opacity: 0.25; }</style><g class="drawing-wrapper" transform="translate(210.93142857142877, 160.28571428571428) scale(1,1)"><g class="rs"><path d="M -113.71428571428577 1.7142857142857224 m -1, 0 a 1,1 0 1,0 2,0 a 1,1 0 1,0 -2,0 M -113.71428571428577 1.7142857142857224 m -0.5, 0 a 0.5,0.5 0 1,0 1,0 a 0.5,0.5 0 1,0 -1,0  M-113.71428571428577 1.7142857142857224 L-113.71428571428577 1.7142857142857224 -125.71428571428577 1.7142857142857224 M -113.71428571428577 7.714285714285722 m -1, 0 a 1,1 0 1,0 2,0 a 1,1 0 1,0 -2,0 M -113.71428571428577 7.714285714285722 m -0.5, 0 a 0.5,0.5 0 1,0 1,0 a 0.5,0.5 0 1,0 -1,0  M-113.71428571428577 7.714285714285722 L-113.71428571428577 7.714285714285722 -120.71428571428577 1.7142857142857224 -113.71428571428577 -4.285714285714278 M -113.71428571428577 -4.285714285714278 m -1, 0 a 1,1 0 1,0 2,0 a 1,1 0 1,0 -2,0 M -113.71428571428577 -4.285714285714278 m -0.5, 0 a 0.5,0.5 0 1,0 1,0 a 0.5,0.5 0 1,0 -1,0  M-125.71428571428577 1.7142857142857224 C -157.38109559580937 1.7142857142857224, -157.55252416723795 96.7142857142857, -125.4285714285715 96.7142857142857 M -113.4285714285715 96.7142857142857 m -1, 0 a 1,1 0 1,0 2,0 a 1,1 0 1,0 -2,0 M -113.4285714285715 96.7142857142857 m -0.5, 0 a 0.5,0.5 0 1,0 1,0 a 0.5,0.5 0 1,0 -1,0  M-113.4285714285715 96.7142857142857 L-113.4285714285715 96.7142857142857 -125.4285714285715 96.7142857142857 M-119.4285714285715 102.7142857142857 L-119.4285714285715 102.7142857142857 -119.4285714285715 90.7142857142857" id="h3159420655" class="r"></path><path d="M 220 269 m -1, 0 a 1,1 0 1,0 2,0 a 1,1 0 1,0 -2,0 M 220 269 m -0.5, 0 a 0.5,0.5 0 1,0 1,0 a 0.5,0.5 0 1,0 -1,0  M220 269 L220 269 208 269 M 220 275 m -1, 0 a 1,1 0 1,0 2,0 a 1,1 0 1,0 -2,0 M 220 275 m -0.5, 0 a 0.5,0.5 0 1,0 1,0 a 0.5,0.5 0 1,0 -1,0  M220 275 L220 275 213 269 220 263 M 220 263 m -1, 0 a 1,1 0 1,0 2,0 a 1,1 0 1,0 -2,0 M 220 263 m -0.5, 0 a 0.5,0.5 0 1,0 1,0 a 0.5,0.5 0 1,0 -1,0  M208 269 C -91.60000000000002 269, 2 415, 52 415 M 64 415 m -1, 0 a 1,1 0 1,0 2,0 a 1,1 0 1,0 -2,0 M 64 415 m -0.5, 0 a 0.5,0.5 0 1,0 1,0 a 0.5,0.5 0 1,0 -1,0  M64 415 L64 415 52 415 M58 421 L58 421 58 409" id="h1334428857" class="r"></path><path d="M 220 294 m -1, 0 a 1,1 0 1,0 2,0 a 1,1 0 1,0 -2,0 M 220 294 m -0.5, 0 a 0.5,0.5 0 1,0 1,0 a 0.5,0.5 0 1,0 -1,0  M220 294 L220 294 208 294 M 220 300 m -1, 0 a 1,1 0 1,0 2,0 a 1,1 0 1,0 -2,0 M 220 300 m -0.5, 0 a 0.5,0.5 0 1,0 1,0 a 0.5,0.5 0 1,0 -1,0  M220 300 L220 300 213 294 220 288 M 220 288 m -1, 0 a 1,1 0 1,0 2,0 a 1,1 0 1,0 -2,0 M 220 288 m -0.5, 0 a 0.5,0.5 0 1,0 1,0 a 0.5,0.5 0 1,0 -1,0  M208 294 C -91.60000000000002 294, 2 415, 52 415 M 64 415 m -1, 0 a 1,1 0 1,0 2,0 a 1,1 0 1,0 -2,0 M 64 415 m -0.5, 0 a 0.5,0.5 0 1,0 1,0 a 0.5,0.5 0 1,0 -1,0  M64 415 L64 415 52 415 M58 421 L58 421 58 409" id="h2957979197" class="r"></path><path d="M 431.4 319 m -1, 0 a 1,1 0 1,0 2,0 a 1,1 0 1,0 -2,0 M 431.4 319 m -0.5, 0 a 0.5,0.5 0 1,0 1,0 a 0.5,0.5 0 1,0 -1,0  M431.4 319 L431.4 319 443.4 319 M 431.4 325 m -1, 0 a 1,1 0 1,0 2,0 a 1,1 0 1,0 -2,0 M 431.4 325 m -0.5, 0 a 0.5,0.5 0 1,0 1,0 a 0.5,0.5 0 1,0 -1,0  M431.4 325 L431.4 325 438.4 319 431.4 313 M 431.4 313 m -1, 0 a 1,1 0 1,0 2,0 a 1,1 0 1,0 -2,0 M 431.4 313 m -0.5, 0 a 0.5,0.5 0 1,0 1,0 a 0.5,0.5 0 1,0 -1,0  M443.4 319 C 473.74001409946203 319, 474.886014099462 410, 441.49 410 M 429.49 410 m -1, 0 a 1,1 0 1,0 2,0 a 1,1 0 1,0 -2,0 M 429.49 410 m -0.5, 0 a 0.5,0.5 0 1,0 1,0 a 0.5,0.5 0 1,0 -1,0  M429.49 410 L429.49 410 441.49 410 M435.49 416 L435.49 416 435.49 404" id="h2372472583" class="r"></path><path d="M 221.42857142857144 35.71428571428572 m -1, 0 a 1,1 0 1,0 2,0 a 1,1 0 1,0 -2,0 M 221.42857142857144 35.71428571428572 m -0.5, 0 a 0.5,0.5 0 1,0 1,0 a 0.5,0.5 0 1,0 -1,0  M221.42857142857144 35.71428571428572 L221.42857142857144 35.71428571428572 209.42857142857144 35.71428571428572 M215.42857142857144 41.71428571428572 L215.42857142857144 41.71428571428572 215.42857142857144 29.714285714285722 M209.42857142857144 35.71428571428572 C 162.7117338557593 35.71428571428572, 163.56887671290215 169, 208 169 M 220 169 m -1, 0 a 1,1 0 1,0 2,0 a 1,1 0 1,0 -2,0 M 220 169 m -0.5, 0 a 0.5,0.5 0 1,0 1,0 a 0.5,0.5 0 1,0 -1,0  M220 169 L220 169 208 169 M214 175 L214 175 214 163" id="h2105621532" class="r"></path><path d="M 497.78 93.11 m -1, 0 a 1,1 0 1,0 2,0 a 1,1 0 1,0 -2,0 M 497.78 93.11 m -0.5, 0 a 0.5,0.5 0 1,0 1,0 a 0.5,0.5 0 1,0 -1,0  M497.78 93.11 L497.78 93.11 485.78 93.11 M 497.78 99.11 m -1, 0 a 1,1 0 1,0 2,0 a 1,1 0 1,0 -2,0 M 497.78 99.11 m -0.5, 0 a 0.5,0.5 0 1,0 1,0 a 0.5,0.5 0 1,0 -1,0  M497.78 99.11 L497.78 99.11 490.78 93.11 497.78 87.11 M 497.78 87.11 m -1, 0 a 1,1 0 1,0 2,0 a 1,1 0 1,0 -2,0 M 497.78 87.11 m -0.5, 0 a 0.5,0.5 0 1,0 1,0 a 0.5,0.5 0 1,0 -1,0  M485.78 93.11 Q 459.71 93.11, 433.63 51.91 T 381.47 10.714285714285722 M 369.47 10.714285714285722 m -1, 0 a 1,1 0 1,0 2,0 a 1,1 0 1,0 -2,0 M 369.47 10.714285714285722 m -0.5, 0 a 0.5,0.5 0 1,0 1,0 a 0.5,0.5 0 1,0 -1,0  M369.47 10.714285714285722 L369.47 10.714285714285722 381.47 10.714285714285722 M375.47 16.714285714285722 L375.47 16.714285714285722 375.47 4.714285714285722" id="h1281469620" class="r"></path><path d="M 645.82 118.11 m -1, 0 a 1,1 0 1,0 2,0 a 1,1 0 1,0 -2,0 M 645.82 118.11 m -0.5, 0 a 0.5,0.5 0 1,0 1,0 a 0.5,0.5 0 1,0 -1,0  M645.82 118.11 L645.82 118.11 657.82 118.11 M 645.82 124.11 m -1, 0 a 1,1 0 1,0 2,0 a 1,1 0 1,0 -2,0 M 645.82 124.11 m -0.5, 0 a 0.5,0.5 0 1,0 1,0 a 0.5,0.5 0 1,0 -1,0  M645.82 124.11 L645.82 124.11 652.82 118.11 645.82 112.11 M 645.82 112.11 m -1, 0 a 1,1 0 1,0 2,0 a 1,1 0 1,0 -2,0 M 645.82 112.11 m -0.5, 0 a 0.5,0.5 0 1,0 1,0 a 0.5,0.5 0 1,0 -1,0  M657.82 118.11 C 707.82 118.11, 836.4720000000001 169, 443.4 169 M 431.4 169 m -1, 0 a 1,1 0 1,0 2,0 a 1,1 0 1,0 -2,0 M 431.4 169 m -0.5, 0 a 0.5,0.5 0 1,0 1,0 a 0.5,0.5 0 1,0 -1,0  M431.4 169 L431.4 169 443.4 169 M437.4 175 L437.4 175 437.4 163" id="h883084757" class="r"></path><path d="M -40.9 268.8885714285715 m -1, 0 a 1,1 0 1,0 2,0 a 1,1 0 1,0 -2,0 M -40.9 268.8885714285715 m -0.5, 0 a 0.5,0.5 0 1,0 1,0 a 0.5,0.5 0 1,0 -1,0  M-40.9 268.8885714285715 L-40.9 268.8885714285715 -28.9 268.8885714285715 M -40.9 274.8885714285715 m -1, 0 a 1,1 0 1,0 2,0 a 1,1 0 1,0 -2,0 M -40.9 274.8885714285715 m -0.5, 0 a 0.5,0.5 0 1,0 1,0 a 0.5,0.5 0 1,0 -1,0  M-40.9 274.8885714285715 L-40.9 274.8885714285715 -33.9 268.8885714285715 -40.9 262.8885714285715 M -40.9 262.8885714285715 m -1, 0 a 1,1 0 1,0 2,0 a 1,1 0 1,0 -2,0 M -40.9 262.8885714285715 m -0.5, 0 a 0.5,0.5 0 1,0 1,0 a 0.5,0.5 0 1,0 -1,0  M-28.9 268.8885714285715 C 110.94 268.8885714285715, 77.25 96.7142857142857, 27.25 96.7142857142857 M 15.25 96.7142857142857 m -1, 0 a 1,1 0 1,0 2,0 a 1,1 0 1,0 -2,0 M 15.25 96.7142857142857 m -0.5, 0 a 0.5,0.5 0 1,0 1,0 a 0.5,0.5 0 1,0 -1,0  M15.25 96.7142857142857 L15.25 96.7142857142857 27.25 96.7142857142857 M21.25 102.7142857142857 L21.25 102.7142857142857 21.25 90.7142857142857" id="h3857304036" class="r"></path><path d="M -40.9 293.8885714285715 m -1, 0 a 1,1 0 1,0 2,0 a 1,1 0 1,0 -2,0 M -40.9 293.8885714285715 m -0.5, 0 a 0.5,0.5 0 1,0 1,0 a 0.5,0.5 0 1,0 -1,0  M-40.9 293.8885714285715 L-40.9 293.8885714285715 -28.9 293.8885714285715 M -40.9 299.8885714285715 m -1, 0 a 1,1 0 1,0 2,0 a 1,1 0 1,0 -2,0 M -40.9 299.8885714285715 m -0.5, 0 a 0.5,0.5 0 1,0 1,0 a 0.5,0.5 0 1,0 -1,0  M-40.9 299.8885714285715 L-40.9 299.8885714285715 -33.9 293.8885714285715 -40.9 287.8885714285715 M -40.9 287.8885714285715 m -1, 0 a 1,1 0 1,0 2,0 a 1,1 0 1,0 -2,0 M -40.9 287.8885714285715 m -0.5, 0 a 0.5,0.5 0 1,0 1,0 a 0.5,0.5 0 1,0 -1,0  M-28.9 293.8885714285715 Q 30.33 293.8885714285715, 89.55 231.44 T 208 169 M 220 169 m -1, 0 a 1,1 0 1,0 2,0 a 1,1 0 1,0 -2,0 M 220 169 m -0.5, 0 a 0.5,0.5 0 1,0 1,0 a 0.5,0.5 0 1,0 -1,0  M220 169 L220 169 208 169 M214 175 L214 175 214 163" id="h3228109841" class="r"></path></g><g class="hrs"></g><g class="ts"><svg width="128.68" height="100" x="64" y="358" id="h332749422" class="t"><rect height="40" width="128.68" class="th"></rect><text x="13" y="25" class="tht">Referees</text><rect height="60" width="128.68" class="t-bg"></rect><text x="13" y="61" class="tf pk">id<tspan x="115.68" class="ty">INTEGER</tspan></text><path d="M7,14A2,2 0 0,1 5,12A2,2 0 0,1 7,10A2,2 0 0,1 9,12A2,2 0 0,1 7,14M12.65,10C11.83,7.67 9.61,6 7, 6A6, 6 0 0, 0 1, 12A6, 6 0 0, 0 7, 18C9.61, 18 11.83, 16.33 12.65, 14H17V18H21V14H23V10H12.65Z" class="i pk" transform="translate(42.34210937500001, 48) scale(0.65)"></path><text x="13" y="86" class="tf">name<tspan x="115.68" class="ty">TEXT</tspan></text><path d="M814.545 581.818v-23.273H535.273v-93.09h-46.546v93.09H209.455v139.637H256V605.09h232.727v93.09h46.546v-93.09H768v93.09h46.545V581.819zM674.91 465.455H349.091V139.636h325.818v325.819zM325.82 884.364H139.635V698.182h186.182v186.182z m279.272 0H418.909V698.182h186.182v186.182z m279.273 0H698.182V698.182h186.182v186.182zM395.636 418.909h232.728V186.182H395.636v232.727zM186.182 837.82h93.09v-93.092h-93.09v93.091z m279.273 0h93.09v-93.092h-93.09v93.091z m279.272 0h93.091v-93.092h-93.09v93.091z" class="i ix" transform="translate(70.01203125, 75) scale(0.014)"></path></svg><svg width="130.49" height="125" x="299" y="353" id="h3133071897" class="t"><rect height="40" width="130.49" class="th"></rect><text x="13" y="25" class="tht">Season</text><rect height="85" width="130.49" class="t-bg"></rect><text x="13" y="61" class="tf pk">id<tspan x="117.49000000000001" class="ty">INTEGER</tspan></text><path d="M7,14A2,2 0 0,1 5,12A2,2 0 0,1 7,10A2,2 0 0,1 9,12A2,2 0 0,1 7,14M12.65,10C11.83,7.67 9.61,6 7, 6A6, 6 0 0, 0 1, 12A6, 6 0 0, 0 7, 18C9.61, 18 11.83, 16.33 12.65, 14H17V18H21V14H23V10H12.65Z" class="i pk" transform="translate(44.15210937500001, 48) scale(0.65)"></path><text x="13" y="86" class="tf">start_date<tspan x="117.49000000000001" class="ty">DATE</tspan></text><text x="13" y="111" class="tf">end_date<tspan x="117.49000000000001" class="ty">DATE</tspan></text></svg><svg width="211.4" height="225" x="220" y="112" id="h3829905542" class="t"><rect height="40" width="211.4" class="th"></rect><text x="13" y="25" class="tht">Matches</text><rect height="185" width="211.4" class="t-bg"></rect><text x="13" y="61" class="tf pk">id<tspan x="198.4" class="ty">INTEGER</tspan></text><path d="M7,14A2,2 0 0,1 5,12A2,2 0 0,1 7,10A2,2 0 0,1 9,12A2,2 0 0,1 7,14M12.65,10C11.83,7.67 9.61,6 7, 6A6, 6 0 0, 0 1, 12A6, 6 0 0, 0 7, 18C9.61, 18 11.83, 16.33 12.65, 14H17V18H21V14H23V10H12.65Z" class="i pk" transform="translate(125.062109375, 48) scale(0.65)"></path><text x="13" y="86" class="tf">location<tspan x="198.4" class="ty">TEXT</tspan></text><text x="13" y="111" class="tf">date<tspan x="198.4" class="ty">DATE</tspan></text><text x="13" y="136" class="tf">start_time<tspan x="198.4" class="ty">TEXT</tspan></text><text x="13" y="161" class="tf fk">head_referee_id<tspan x="198.4" class="ty">INTEGER</tspan></text><text x="13" y="186" class="tf fk">assistant_referree_id<tspan x="198.4" class="ty">INTEGER</tspan></text><text x="13" y="211" class="tf fk">season_id<tspan x="198.4" class="ty">INTEGER</tspan></text></svg><svg width="148.04" height="125" x="497.78" y="11.11" id="h2207534861" class="t"><rect height="40" width="148.04" class="th"></rect><text x="13" y="25" class="tht">Goals</text><rect height="85" width="148.04" class="t-bg"></rect><text x="13" y="61" class="tf pk">id<tspan x="135.04" class="ty">INTEGER</tspan></text><path d="M7,14A2,2 0 0,1 5,12A2,2 0 0,1 7,10A2,2 0 0,1 9,12A2,2 0 0,1 7,14M12.65,10C11.83,7.67 9.61,6 7, 6A6, 6 0 0, 0 1, 12A6, 6 0 0, 0 7, 18C9.61, 18 11.83, 16.33 12.65, 14H17V18H21V14H23V10H12.65Z" class="i pk" transform="translate(61.70210937499999, 48) scale(0.65)"></path><text x="13" y="86" class="tf fk">player_id<tspan x="135.04" class="ty">INTEGER</tspan></text><text x="13" y="111" class="tf fk">match_id<tspan x="135.04" class="ty">INTEGER</tspan></text></svg><svg width="148.03" height="150" x="-188.93142857142877" y="161.88857142857145" id="h1488401382" class="t"><rect height="40" width="148.03" class="th"></rect><text x="13" y="25" class="tht">Results</text><rect height="110" width="148.03" class="t-bg"></rect><text x="13" y="61" class="tf pk">id<tspan x="135.03" class="ty">INTEGER</tspan></text><path d="M7,14A2,2 0 0,1 5,12A2,2 0 0,1 7,10A2,2 0 0,1 9,12A2,2 0 0,1 7,14M12.65,10C11.83,7.67 9.61,6 7, 6A6, 6 0 0, 0 1, 12A6, 6 0 0, 0 7, 18C9.61, 18 11.83, 16.33 12.65, 14H17V18H21V14H23V10H12.65Z" class="i pk" transform="translate(61.692109375, 48) scale(0.65)"></path><text x="13" y="86" class="tf">results<tspan x="135.03" class="ty">TEXT</tspan></text><path d="M814.545 581.818v-23.273H535.273v-93.09h-46.546v93.09H209.455v139.637H256V605.09h232.727v93.09h46.546v-93.09H768v93.09h46.545V581.819zM674.91 465.455H349.091V139.636h325.818v325.819zM325.82 884.364H139.635V698.182h186.182v186.182z m279.272 0H418.909V698.182h186.182v186.182z m279.273 0H698.182V698.182h186.182v186.182zM395.636 418.909h232.728V186.182H395.636v232.727zM186.182 837.82h93.09v-93.092h-93.09v93.091z m279.273 0h93.09v-93.092h-93.09v93.091z m279.272 0h93.091v-93.092h-93.09v93.091z" class="i ix" transform="translate(89.36203125, 75) scale(0.014)"></path><text x="13" y="111" class="tf fk">team_id<tspan x="135.03" class="ty">INTEGER</tspan></text><text x="13" y="136" class="tf fk">match_id<tspan x="135.03" class="ty">INTEGER</tspan></text></svg><svg width="128.68" height="100" x="-113.4285714285715" y="39.714285714285694" id="h3010508784" class="t"><rect height="40" width="128.68" class="th"></rect><text x="13" y="25" class="tht">Teams</text><rect height="60" width="128.68" class="t-bg"></rect><text x="13" y="61" class="tf pk">id<tspan x="115.68" class="ty">INTEGER</tspan></text><path d="M7,14A2,2 0 0,1 5,12A2,2 0 0,1 7,10A2,2 0 0,1 9,12A2,2 0 0,1 7,14M12.65,10C11.83,7.67 9.61,6 7, 6A6, 6 0 0, 0 1, 12A6, 6 0 0, 0 7, 18C9.61, 18 11.83, 16.33 12.65, 14H17V18H21V14H23V10H12.65Z" class="i pk" transform="translate(42.34210937500001, 48) scale(0.65)"></path><text x="13" y="86" class="tf">name<tspan x="115.68" class="ty">TEXT</tspan></text><path d="M814.545 581.818v-23.273H535.273v-93.09h-46.546v93.09H209.455v139.637H256V605.09h232.727v93.09h46.546v-93.09H768v93.09h46.545V581.819zM674.91 465.455H349.091V139.636h325.818v325.819zM325.82 884.364H139.635V698.182h186.182v186.182z m279.272 0H418.909V698.182h186.182v186.182z m279.273 0H698.182V698.182h186.182v186.182zM395.636 418.909h232.728V186.182H395.636v232.727zM186.182 837.82h93.09v-93.092h-93.09v93.091z m279.273 0h93.09v-93.092h-93.09v93.091z m279.272 0h93.091v-93.092h-93.09v93.091z" class="i ix" transform="translate(70.01203125, 75) scale(0.014)"></path></svg><svg width="148.03" height="150" x="-113.71428571428577" y="-130.28571428571428" id="h4103274130" class="t"><rect height="40" width="148.03" class="th"></rect><text x="13" y="25" class="tht">Players</text><rect height="110" width="148.03" class="t-bg"></rect><text x="13" y="61" class="tf pk">id<tspan x="135.03" class="ty">INTEGER</tspan></text><path d="M7,14A2,2 0 0,1 5,12A2,2 0 0,1 7,10A2,2 0 0,1 9,12A2,2 0 0,1 7,14M12.65,10C11.83,7.67 9.61,6 7, 6A6, 6 0 0, 0 1, 12A6, 6 0 0, 0 7, 18C9.61, 18 11.83, 16.33 12.65, 14H17V18H21V14H23V10H12.65Z" class="i pk" transform="translate(61.692109375, 48) scale(0.65)"></path><text x="13" y="86" class="tf">first_name<tspan x="135.03" class="ty">TEXT</tspan></text><text x="13" y="111" class="tf">last_name<tspan x="135.03" class="ty">TEXT</tspan></text><path d="M814.545 581.818v-23.273H535.273v-93.09h-46.546v93.09H209.455v139.637H256V605.09h232.727v93.09h46.546v-93.09H768v93.09h46.545V581.819zM674.91 465.455H349.091V139.636h325.818v325.819zM325.82 884.364H139.635V698.182h186.182v186.182z m279.272 0H418.909V698.182h186.182v186.182z m279.273 0H698.182V698.182h186.182v186.182zM395.636 418.909h232.728V186.182H395.636v232.727zM186.182 837.82h93.09v-93.092h-93.09v93.091z m279.273 0h93.09v-93.092h-93.09v93.091z m279.272 0h93.091v-93.092h-93.09v93.091z" class="i ix" transform="translate(89.36203125, 100) scale(0.014)"></path><text x="13" y="136" class="tf fk">teams_id<tspan x="135.03" class="ty">INTEGER</tspan></text></svg><svg width="148.04" height="150" x="221.42857142857144" y="-71.28571428571428" id="h1247361070" class="t"><rect height="40" width="148.04" class="th"></rect><text x="13" y="25" class="tht">Lineups</text><rect height="110" width="148.04" class="t-bg"></rect><text x="13" y="61" class="tf pk">id<tspan x="135.04" class="ty">INTEGER</tspan></text><path d="M7,14A2,2 0 0,1 5,12A2,2 0 0,1 7,10A2,2 0 0,1 9,12A2,2 0 0,1 7,14M12.65,10C11.83,7.67 9.61,6 7, 6A6, 6 0 0, 0 1, 12A6, 6 0 0, 0 7, 18C9.61, 18 11.83, 16.33 12.65, 14H17V18H21V14H23V10H12.65Z" class="i pk" transform="translate(61.70210937499999, 48) scale(0.65)"></path><text x="13" y="86" class="tf fk">player_id<tspan x="135.04" class="ty">INTEGER</tspan></text><text x="13" y="111" class="tf fk">match_id<tspan x="135.04" class="ty">INTEGER</tspan></text><text x="13" y="136" class="tf fk">team_id<tspan x="135.04" class="ty">INTEGER</tspan></text></svg></g></g><text class="qdbd-link" x="10" y="20">www.quickdatabasediagrams.com</text></svg>